<svg xmlns="http://www.w3.org/2000/svg" viewBox="0 0 208.59 120.38"><defs><style>.cls-1{fill:#fff200;}.cls-2{fill:#00aeef;}.cls-3{fill:#ed2024;}</style></defs><title>fixAsset 2biru</title><g id="Layer_2" data-name="Layer 2"><g id="Layer_1-2" data-name="Layer 1"><path class="cls-1" d="M208.59,84.36l-36,36L67.1,14.92h0a51,51,0,0,1,72.06,0l69.43,69.43"/><path class="cls-2" d="M107.52,13.5h51a0,0,0,0,1,0,0V91.37a51,51,0,0,1-51,51h0a0,0,0,0,1,0,0V13.5A0,0,0,0,1,107.52,13.5Z" transform="translate(94.04 -71.22) rotate(45)"/><polygon class="cls-2" points="208.59 2.41 146.29 11.59 199.41 64.71 208.59 2.41"/><path class="cls-1" d="M45.27-3.83h51a0,0,0,0,1,0,0V145.32a0,0,0,0,1,0,0h0a51,51,0,0,1-51-51V-3.83A0,0,0,0,1,45.27-3.83Z" transform="translate(-29.3 70.74) rotate(-45)"/><polygon class="cls-3" points="0 117.97 62.3 108.79 9.18 55.67 0 117.97"/><rect class="cls-3" x="18.65" y="35.01" width="77.88" height="50.95" transform="translate(-25.9 58.44) rotate(-45)"/></g></g></svg>